<svg xmlns="http://www.w3.org/2000/svg" xmlns:xlink="http://www.w3.org/1999/xlink" aria-hidden="true" role="img" class="iconify iconify--logos" width="31.88" height="32" preserveAspectRatio="xMidYMid meet" viewBox="0 0 256 257"><defs><linearGradient id="IconifyId1813088fe1fbc01fb466" x1="-.828%" x2="57.636%" y1="7.652%" y2="78.411%"><stop offset="0%" stop-color="#6B7AFF"></stop><stop offset="100%" stop-color="#9B4ED8"></stop></linearGradient></defs><path fill="url(#IconifyId1813088fe1fbc01fb466)" d="M255.153 37.938L134.897 252.976c-2.483 4.44-8.862 4.466-11.383.048L.875 37.958c-2.746-4.814 1.371-10.646 6.827-9.67l120.505 21.517a6.537 6.537 0 0 0 2.322-.004l117.856-21.483c5.438-.991 9.574 4.796 6.822 9.62Z"></path><path fill="#A9A9A9" d="M185.432.063L96.44 17.501a3.268 3.268 0 0 0-2.634 3.014l-5.474 92.456a1.318 1.318 0 0 0 2.117 1.04l23.29-17.855a3.267 3.267 0 0 1 4.555.452l11.344 14.374a3.267 3.267 0 0 0 4.555.453l12.21-9.403a3.267 3.267 0 0 1 4.555.452l23.66 28.868a3.267 3.267 0 0 0 5.767-1.578l14.82-128.553a3.267 3.267 0 0 0-3.851-3.558Z"></path></svg>
